<?xml version="1.0" encoding="utf-8"?>
<!-- Generator: Adobe Illustrator 22.0.0, SVG Export Plug-In . SVG Version: 6.00 Build 0)  -->
<svg version="1.1" id="Capa_1" xmlns="http://www.w3.org/2000/svg" xmlns:xlink="http://www.w3.org/1999/xlink" x="0px" y="0px"
	 width="452.3880005px" height="365.4909973px" viewBox="0 0 452.3880005 365.4909973"
	 enable-background="new 0 0 452.3880005 365.4909973" xml:space="preserve">
<g>
	<g id="Layer_8_14_">
		<path fill="#FFFFFF" d="M441.677002,1H10.6870003C4.7849998,1,0,5.7839966,0,11.685997v297.4249878
			c0,5.8980103,4.7849998,10.6759949,10.6870003,10.6759949h162.0690002v25.631012
			c0,0.3800049,0.0740051,0.7219849,0.1119995,1.0889893h-23.2570038c-5.4069977,0-9.7960052,4.3890076-9.7960052,9.7950134
			c0,5.4079895,4.3889923,9.8009949,9.7960052,9.8009949h158.506012c5.4060059,0,9.7950134-4.3890076,9.7950134-9.8009949
			c0-5.4060059-4.3890076-9.7950134-9.7950134-9.7950134h-23.256012c0.0320129-0.355011,0.1149902-0.7090149,0.1149902-1.0889893
			v-25.631012h156.7240295c5.8980103,0,10.6879883-4.7820129,10.6879883-10.6759949V11.685997
			C452.3699951,5.7839966,447.5889893,1,441.677002,1z M422.0889893,262.4899902
			c0,5.9030151-4.7839966,10.6870117-10.6830139,10.6870117H40.9599991c-5.8979988,0-10.684-4.7829895-10.684-10.6870117V36.9719963
			c0-5.8980026,4.7860012-10.6839981,10.684-10.6839981h370.4460144c5.8980103,0,10.6830139,4.7850037,10.6830139,10.6839981
			v225.5179901H422.0889893z"/>
	</g>
</g>
</svg>
